M48
; DRILL file {KiCad 5.1.10-88a1d61d58~90~ubuntu20.04.1} date Sat Feb 26 08:38:04 2022
; FORMAT={-:-/ absolute / inch / decimal}
; #@! TF.CreationDate,2022-02-26T08:38:04+09:30
; #@! TF.GenerationSoftware,Kicad,Pcbnew,5.1.10-88a1d61d58~90~ubuntu20.04.1
; #@! TF.FileFunction,Plated,1,2,PTH
FMAT,2
INCH
T1C0.0157
T2C0.0300
T3C0.0394
T4C0.1181
%
G90
G05
T1
X3.75Y-2.6
X3.75Y-2.65
X3.75Y-2.7
X3.75Y-2.75
X3.75Y-2.8
X3.8Y-2.6
X3.8Y-2.65
X3.8Y-2.7
X3.8Y-2.75
X3.8Y-2.8
X3.85Y-2.6
X3.85Y-2.65
X3.85Y-2.7
X3.85Y-2.75
X3.85Y-2.8
X3.8985Y-4.6015
X3.8985Y-4.6515
X3.9Y-2.6
X3.9Y-2.65
X3.9Y-2.7
X3.9Y-2.75
X3.9Y-2.8
X3.905Y-5.345
X3.905Y-5.395
X3.95Y-2.6
X3.95Y-2.65
X3.95Y-2.7
X3.95Y-2.75
X3.95Y-2.8
X4.0Y-5.05
X4.05Y-5.05
X4.15Y-3.2
X4.15Y-3.25
X4.15Y-3.3
X4.15Y-3.35
X4.15Y-3.4
X4.2Y-3.2
X4.2Y-3.4
X4.2Y-3.75
X4.2375Y-4.6125
X4.25Y-3.2
X4.25Y-3.25
X4.25Y-3.35
X4.25Y-3.4
X4.25Y-3.8
X4.2842Y-4.6658
X4.2883Y-4.4883
X4.3Y-3.2
X4.3Y-3.4
X4.3342Y-4.7158
X4.3425Y-4.4575
X4.35Y-3.2
X4.35Y-3.25
X4.35Y-3.35
X4.35Y-3.4
X4.3641Y-5.2859
X4.3842Y-4.7658
X4.4Y-3.2
X4.4Y-3.4
X4.4141Y-5.2859
X4.45Y-3.2
X4.45Y-3.25
X4.45Y-3.35
X4.45Y-3.4
X4.48Y-5.28
X4.5Y-3.2
X4.5Y-3.4
X4.53Y-5.23
X4.55Y-3.2
X4.55Y-3.25
X4.55Y-3.3
X4.55Y-3.35
X4.55Y-3.4
X4.7Y-4.15
X4.7075Y-4.7925
X4.75Y-4.2
X4.7575Y-4.7925
X4.856Y-4.544
X4.894Y-4.544
X5.4215Y-4.5215
X5.4715Y-4.4715
X5.4965Y-4.4465
X5.55Y-4.8
X5.6Y-4.8
X5.65Y-4.2
X5.6885Y-5.7115
X5.6885Y-5.7115
X5.6975Y-4.1525
X5.7035Y-4.7965
X5.7535Y-4.7965
X5.81Y-4.76
X5.85Y-2.65
X5.85Y-2.7
X5.85Y-2.75
X5.85Y-2.8
X5.85Y-2.85
X5.86Y-4.71
X5.9Y-2.65
X5.9Y-2.85
X5.95Y-2.65
X5.95Y-2.7
X5.95Y-2.8
X5.95Y-2.85
X6.0Y-2.65
X6.0Y-2.85
X6.0075Y-4.1925
X6.05Y-2.65
X6.05Y-2.7
X6.05Y-2.8
X6.05Y-2.85
X6.05Y-4.15
X6.0586Y-5.6414
X6.0586Y-5.7086
X6.1Y-2.65
X6.1Y-2.85
X6.15Y-2.0
X6.15Y-2.05
X6.15Y-2.1
X6.15Y-2.15
X6.15Y-2.2
X6.15Y-2.65
X6.15Y-2.7
X6.15Y-2.8
X6.15Y-2.85
X6.15Y-3.8
X6.2Y-2.0
X6.2Y-2.05
X6.2Y-2.1
X6.2Y-2.15
X6.2Y-2.2
X6.2Y-2.65
X6.2Y-2.85
X6.2Y-3.75
X6.25Y-2.0
X6.25Y-2.05
X6.25Y-2.1
X6.25Y-2.15
X6.25Y-2.2
X6.25Y-2.65
X6.25Y-2.7
X6.25Y-2.75
X6.25Y-2.8
X6.25Y-2.85
X6.3Y-2.0
X6.3Y-2.05
X6.3Y-2.1
X6.3Y-2.15
X6.3Y-2.2
X6.35Y-2.0
X6.35Y-2.05
X6.35Y-2.1
X6.35Y-2.15
X6.35Y-2.2
T2
X4.5975Y-5.0625
X4.5975Y-5.1625
X4.5975Y-5.2625
X4.5975Y-5.3625
X4.5975Y-5.4625
X4.5975Y-5.5625
X4.6975Y-5.0125
X4.6975Y-5.6125
X4.7975Y-5.0125
X4.7975Y-5.6125
X4.8975Y-5.0125
X4.8975Y-5.6125
X4.9975Y-5.0125
X4.9975Y-5.6125
X5.0975Y-5.0125
X5.0975Y-5.6125
X5.1975Y-5.0125
X5.1975Y-5.6125
X5.2975Y-5.0125
X5.2975Y-5.6125
X5.3975Y-5.0125
X5.3975Y-5.6125
X5.4975Y-5.0125
X5.4975Y-5.6125
X5.5975Y-5.0125
X5.5975Y-5.6125
X5.6975Y-5.0125
X5.6975Y-5.6125
X5.7975Y-5.0125
X5.7975Y-5.6125
T3
X3.865Y-5.4525
X3.865Y-5.5525
X4.355Y-5.8125
X4.455Y-5.8125
X4.555Y-5.8125
X4.655Y-5.8125
X4.89Y-5.8125
X4.99Y-5.8125
X5.09Y-5.8125
X5.19Y-5.8125
X5.29Y-5.8125
X5.39Y-5.8125
X6.2025Y-4.9925
X6.2025Y-5.0925
X6.2025Y-5.1925
X6.2025Y-5.2925
X6.2025Y-5.3925
X6.2025Y-5.4925
X6.2025Y-5.5925
X6.2025Y-5.6925
T4
X4.1Y-5.75
X4.25Y-2.0
X5.9Y-2.0
X6.25Y-4.2
T0
M30
