%TF.GenerationSoftware,KiCad,Pcbnew,5.1.10-88a1d61d58~90~ubuntu20.04.1*%
%TF.CreationDate,2022-02-26T14:12:45+09:30*%
%TF.ProjectId,SWRBridge,53575242-7269-4646-9765-2e6b69636164,rev?*%
%TF.SameCoordinates,Original*%
%TF.FileFunction,Paste,Top*%
%TF.FilePolarity,Positive*%
%FSLAX46Y46*%
G04 Gerber Fmt 4.6, Leading zero omitted, Abs format (unit mm)*
G04 Created by KiCad (PCBNEW 5.1.10-88a1d61d58~90~ubuntu20.04.1) date 2022-02-26 14:12:45*
%MOMM*%
%LPD*%
G01*
G04 APERTURE LIST*
%ADD10R,12.000000X6.000000*%
%ADD11R,6.000000X12.000000*%
%ADD12R,2.000000X3.800000*%
%ADD13R,2.000000X1.500000*%
%ADD14R,6.000000X6.000000*%
G04 APERTURE END LIST*
%TO.C,C1*%
G36*
G01*
X116025500Y-108600001D02*
X116025500Y-107299999D01*
G75*
G02*
X116275499Y-107050000I249999J0D01*
G01*
X117100501Y-107050000D01*
G75*
G02*
X117350500Y-107299999I0J-249999D01*
G01*
X117350500Y-108600001D01*
G75*
G02*
X117100501Y-108850000I-249999J0D01*
G01*
X116275499Y-108850000D01*
G75*
G02*
X116025500Y-108600001I0J249999D01*
G01*
G37*
G36*
G01*
X112900500Y-108600001D02*
X112900500Y-107299999D01*
G75*
G02*
X113150499Y-107050000I249999J0D01*
G01*
X113975501Y-107050000D01*
G75*
G02*
X114225500Y-107299999I0J-249999D01*
G01*
X114225500Y-108600001D01*
G75*
G02*
X113975501Y-108850000I-249999J0D01*
G01*
X113150499Y-108850000D01*
G75*
G02*
X112900500Y-108600001I0J249999D01*
G01*
G37*
%TD*%
%TO.C,C2*%
G36*
G01*
X106982499Y-111503500D02*
X108282501Y-111503500D01*
G75*
G02*
X108532500Y-111753499I0J-249999D01*
G01*
X108532500Y-112578501D01*
G75*
G02*
X108282501Y-112828500I-249999J0D01*
G01*
X106982499Y-112828500D01*
G75*
G02*
X106732500Y-112578501I0J249999D01*
G01*
X106732500Y-111753499D01*
G75*
G02*
X106982499Y-111503500I249999J0D01*
G01*
G37*
G36*
G01*
X106982499Y-114628500D02*
X108282501Y-114628500D01*
G75*
G02*
X108532500Y-114878499I0J-249999D01*
G01*
X108532500Y-115703501D01*
G75*
G02*
X108282501Y-115953500I-249999J0D01*
G01*
X106982499Y-115953500D01*
G75*
G02*
X106732500Y-115703501I0J249999D01*
G01*
X106732500Y-114878499D01*
G75*
G02*
X106982499Y-114628500I249999J0D01*
G01*
G37*
%TD*%
%TO.C,C3*%
G36*
G01*
X98637000Y-132834000D02*
X99737000Y-132834000D01*
G75*
G02*
X99987000Y-133084000I0J-250000D01*
G01*
X99987000Y-135184000D01*
G75*
G02*
X99737000Y-135434000I-250000J0D01*
G01*
X98637000Y-135434000D01*
G75*
G02*
X98387000Y-135184000I0J250000D01*
G01*
X98387000Y-133084000D01*
G75*
G02*
X98637000Y-132834000I250000J0D01*
G01*
G37*
G36*
G01*
X98637000Y-129234000D02*
X99737000Y-129234000D01*
G75*
G02*
X99987000Y-129484000I0J-250000D01*
G01*
X99987000Y-131584000D01*
G75*
G02*
X99737000Y-131834000I-250000J0D01*
G01*
X98637000Y-131834000D01*
G75*
G02*
X98387000Y-131584000I0J250000D01*
G01*
X98387000Y-129484000D01*
G75*
G02*
X98637000Y-129234000I250000J0D01*
G01*
G37*
%TD*%
%TO.C,C4*%
G36*
G01*
X120952499Y-114755500D02*
X122252501Y-114755500D01*
G75*
G02*
X122502500Y-115005499I0J-249999D01*
G01*
X122502500Y-115830501D01*
G75*
G02*
X122252501Y-116080500I-249999J0D01*
G01*
X120952499Y-116080500D01*
G75*
G02*
X120702500Y-115830501I0J249999D01*
G01*
X120702500Y-115005499D01*
G75*
G02*
X120952499Y-114755500I249999J0D01*
G01*
G37*
G36*
G01*
X120952499Y-111630500D02*
X122252501Y-111630500D01*
G75*
G02*
X122502500Y-111880499I0J-249999D01*
G01*
X122502500Y-112705501D01*
G75*
G02*
X122252501Y-112955500I-249999J0D01*
G01*
X120952499Y-112955500D01*
G75*
G02*
X120702500Y-112705501I0J249999D01*
G01*
X120702500Y-111880499D01*
G75*
G02*
X120952499Y-111630500I249999J0D01*
G01*
G37*
%TD*%
%TO.C,C5*%
G36*
G01*
X111617999Y-118171000D02*
X112918001Y-118171000D01*
G75*
G02*
X113168000Y-118420999I0J-249999D01*
G01*
X113168000Y-119246001D01*
G75*
G02*
X112918001Y-119496000I-249999J0D01*
G01*
X111617999Y-119496000D01*
G75*
G02*
X111368000Y-119246001I0J249999D01*
G01*
X111368000Y-118420999D01*
G75*
G02*
X111617999Y-118171000I249999J0D01*
G01*
G37*
G36*
G01*
X111617999Y-121296000D02*
X112918001Y-121296000D01*
G75*
G02*
X113168000Y-121545999I0J-249999D01*
G01*
X113168000Y-122371001D01*
G75*
G02*
X112918001Y-122621000I-249999J0D01*
G01*
X111617999Y-122621000D01*
G75*
G02*
X111368000Y-122371001I0J249999D01*
G01*
X111368000Y-121545999D01*
G75*
G02*
X111617999Y-121296000I249999J0D01*
G01*
G37*
%TD*%
%TO.C,C6*%
G36*
G01*
X146547000Y-107680999D02*
X146547000Y-108981001D01*
G75*
G02*
X146297001Y-109231000I-249999J0D01*
G01*
X145471999Y-109231000D01*
G75*
G02*
X145222000Y-108981001I0J249999D01*
G01*
X145222000Y-107680999D01*
G75*
G02*
X145471999Y-107431000I249999J0D01*
G01*
X146297001Y-107431000D01*
G75*
G02*
X146547000Y-107680999I0J-249999D01*
G01*
G37*
G36*
G01*
X149672000Y-107680999D02*
X149672000Y-108981001D01*
G75*
G02*
X149422001Y-109231000I-249999J0D01*
G01*
X148596999Y-109231000D01*
G75*
G02*
X148347000Y-108981001I0J249999D01*
G01*
X148347000Y-107680999D01*
G75*
G02*
X148596999Y-107431000I249999J0D01*
G01*
X149422001Y-107431000D01*
G75*
G02*
X149672000Y-107680999I0J-249999D01*
G01*
G37*
%TD*%
%TO.C,C7*%
G36*
G01*
X125796000Y-121079499D02*
X125796000Y-122379501D01*
G75*
G02*
X125546001Y-122629500I-249999J0D01*
G01*
X124720999Y-122629500D01*
G75*
G02*
X124471000Y-122379501I0J249999D01*
G01*
X124471000Y-121079499D01*
G75*
G02*
X124720999Y-120829500I249999J0D01*
G01*
X125546001Y-120829500D01*
G75*
G02*
X125796000Y-121079499I0J-249999D01*
G01*
G37*
G36*
G01*
X122671000Y-121079499D02*
X122671000Y-122379501D01*
G75*
G02*
X122421001Y-122629500I-249999J0D01*
G01*
X121595999Y-122629500D01*
G75*
G02*
X121346000Y-122379501I0J249999D01*
G01*
X121346000Y-121079499D01*
G75*
G02*
X121595999Y-120829500I249999J0D01*
G01*
X122421001Y-120829500D01*
G75*
G02*
X122671000Y-121079499I0J-249999D01*
G01*
G37*
%TD*%
%TO.C,C8*%
G36*
G01*
X108416000Y-129361000D02*
X109516000Y-129361000D01*
G75*
G02*
X109766000Y-129611000I0J-250000D01*
G01*
X109766000Y-131711000D01*
G75*
G02*
X109516000Y-131961000I-250000J0D01*
G01*
X108416000Y-131961000D01*
G75*
G02*
X108166000Y-131711000I0J250000D01*
G01*
X108166000Y-129611000D01*
G75*
G02*
X108416000Y-129361000I250000J0D01*
G01*
G37*
G36*
G01*
X108416000Y-132961000D02*
X109516000Y-132961000D01*
G75*
G02*
X109766000Y-133211000I0J-250000D01*
G01*
X109766000Y-135311000D01*
G75*
G02*
X109516000Y-135561000I-250000J0D01*
G01*
X108416000Y-135561000D01*
G75*
G02*
X108166000Y-135311000I0J250000D01*
G01*
X108166000Y-133211000D01*
G75*
G02*
X108416000Y-132961000I250000J0D01*
G01*
G37*
%TD*%
%TO.C,C9*%
G36*
G01*
X134985999Y-114184000D02*
X136286001Y-114184000D01*
G75*
G02*
X136536000Y-114433999I0J-249999D01*
G01*
X136536000Y-115259001D01*
G75*
G02*
X136286001Y-115509000I-249999J0D01*
G01*
X134985999Y-115509000D01*
G75*
G02*
X134736000Y-115259001I0J249999D01*
G01*
X134736000Y-114433999D01*
G75*
G02*
X134985999Y-114184000I249999J0D01*
G01*
G37*
G36*
G01*
X134985999Y-111059000D02*
X136286001Y-111059000D01*
G75*
G02*
X136536000Y-111308999I0J-249999D01*
G01*
X136536000Y-112134001D01*
G75*
G02*
X136286001Y-112384000I-249999J0D01*
G01*
X134985999Y-112384000D01*
G75*
G02*
X134736000Y-112134001I0J249999D01*
G01*
X134736000Y-111308999D01*
G75*
G02*
X134985999Y-111059000I249999J0D01*
G01*
G37*
%TD*%
%TO.C,C10*%
G36*
G01*
X153240501Y-111635500D02*
X151940499Y-111635500D01*
G75*
G02*
X151690500Y-111385501I0J249999D01*
G01*
X151690500Y-110560499D01*
G75*
G02*
X151940499Y-110310500I249999J0D01*
G01*
X153240501Y-110310500D01*
G75*
G02*
X153490500Y-110560499I0J-249999D01*
G01*
X153490500Y-111385501D01*
G75*
G02*
X153240501Y-111635500I-249999J0D01*
G01*
G37*
G36*
G01*
X153240501Y-108510500D02*
X151940499Y-108510500D01*
G75*
G02*
X151690500Y-108260501I0J249999D01*
G01*
X151690500Y-107435499D01*
G75*
G02*
X151940499Y-107185500I249999J0D01*
G01*
X153240501Y-107185500D01*
G75*
G02*
X153490500Y-107435499I0J-249999D01*
G01*
X153490500Y-108260501D01*
G75*
G02*
X153240501Y-108510500I-249999J0D01*
G01*
G37*
%TD*%
%TO.C,C11*%
G36*
G01*
X142986999Y-121169000D02*
X144287001Y-121169000D01*
G75*
G02*
X144537000Y-121418999I0J-249999D01*
G01*
X144537000Y-122244001D01*
G75*
G02*
X144287001Y-122494000I-249999J0D01*
G01*
X142986999Y-122494000D01*
G75*
G02*
X142737000Y-122244001I0J249999D01*
G01*
X142737000Y-121418999D01*
G75*
G02*
X142986999Y-121169000I249999J0D01*
G01*
G37*
G36*
G01*
X142986999Y-118044000D02*
X144287001Y-118044000D01*
G75*
G02*
X144537000Y-118293999I0J-249999D01*
G01*
X144537000Y-119119001D01*
G75*
G02*
X144287001Y-119369000I-249999J0D01*
G01*
X142986999Y-119369000D01*
G75*
G02*
X142737000Y-119119001I0J249999D01*
G01*
X142737000Y-118293999D01*
G75*
G02*
X142986999Y-118044000I249999J0D01*
G01*
G37*
%TD*%
%TO.C,C12*%
G36*
G01*
X135633500Y-122570001D02*
X135633500Y-121269999D01*
G75*
G02*
X135883499Y-121020000I249999J0D01*
G01*
X136708501Y-121020000D01*
G75*
G02*
X136958500Y-121269999I0J-249999D01*
G01*
X136958500Y-122570001D01*
G75*
G02*
X136708501Y-122820000I-249999J0D01*
G01*
X135883499Y-122820000D01*
G75*
G02*
X135633500Y-122570001I0J249999D01*
G01*
G37*
G36*
G01*
X138758500Y-122570001D02*
X138758500Y-121269999D01*
G75*
G02*
X139008499Y-121020000I249999J0D01*
G01*
X139833501Y-121020000D01*
G75*
G02*
X140083500Y-121269999I0J-249999D01*
G01*
X140083500Y-122570001D01*
G75*
G02*
X139833501Y-122820000I-249999J0D01*
G01*
X139008499Y-122820000D01*
G75*
G02*
X138758500Y-122570001I0J249999D01*
G01*
G37*
%TD*%
%TO.C,C13*%
G36*
G01*
X148275000Y-146669999D02*
X148275000Y-147970001D01*
G75*
G02*
X148025001Y-148220000I-249999J0D01*
G01*
X147199999Y-148220000D01*
G75*
G02*
X146950000Y-147970001I0J249999D01*
G01*
X146950000Y-146669999D01*
G75*
G02*
X147199999Y-146420000I249999J0D01*
G01*
X148025001Y-146420000D01*
G75*
G02*
X148275000Y-146669999I0J-249999D01*
G01*
G37*
G36*
G01*
X145150000Y-146669999D02*
X145150000Y-147970001D01*
G75*
G02*
X144900001Y-148220000I-249999J0D01*
G01*
X144074999Y-148220000D01*
G75*
G02*
X143825000Y-147970001I0J249999D01*
G01*
X143825000Y-146669999D01*
G75*
G02*
X144074999Y-146420000I249999J0D01*
G01*
X144900001Y-146420000D01*
G75*
G02*
X145150000Y-146669999I0J-249999D01*
G01*
G37*
%TD*%
%TO.C,C14*%
G36*
G01*
X139051000Y-119204501D02*
X139051000Y-117904499D01*
G75*
G02*
X139300999Y-117654500I249999J0D01*
G01*
X140126001Y-117654500D01*
G75*
G02*
X140376000Y-117904499I0J-249999D01*
G01*
X140376000Y-119204501D01*
G75*
G02*
X140126001Y-119454500I-249999J0D01*
G01*
X139300999Y-119454500D01*
G75*
G02*
X139051000Y-119204501I0J249999D01*
G01*
G37*
G36*
G01*
X135926000Y-119204501D02*
X135926000Y-117904499D01*
G75*
G02*
X136175999Y-117654500I249999J0D01*
G01*
X137001001Y-117654500D01*
G75*
G02*
X137251000Y-117904499I0J-249999D01*
G01*
X137251000Y-119204501D01*
G75*
G02*
X137001001Y-119454500I-249999J0D01*
G01*
X136175999Y-119454500D01*
G75*
G02*
X135926000Y-119204501I0J249999D01*
G01*
G37*
%TD*%
%TO.C,C15*%
G36*
G01*
X160432000Y-117046500D02*
X160432000Y-119046500D01*
G75*
G02*
X160182000Y-119296500I-250000J0D01*
G01*
X156682000Y-119296500D01*
G75*
G02*
X156432000Y-119046500I0J250000D01*
G01*
X156432000Y-117046500D01*
G75*
G02*
X156682000Y-116796500I250000J0D01*
G01*
X160182000Y-116796500D01*
G75*
G02*
X160432000Y-117046500I0J-250000D01*
G01*
G37*
G36*
G01*
X152432000Y-117046500D02*
X152432000Y-119046500D01*
G75*
G02*
X152182000Y-119296500I-250000J0D01*
G01*
X148682000Y-119296500D01*
G75*
G02*
X148432000Y-119046500I0J250000D01*
G01*
X148432000Y-117046500D01*
G75*
G02*
X148682000Y-116796500I250000J0D01*
G01*
X152182000Y-116796500D01*
G75*
G02*
X152432000Y-117046500I0J-250000D01*
G01*
G37*
%TD*%
%TO.C,D1*%
G36*
G01*
X103451500Y-136674500D02*
X104701500Y-136674500D01*
G75*
G02*
X104951500Y-136924500I0J-250000D01*
G01*
X104951500Y-137849500D01*
G75*
G02*
X104701500Y-138099500I-250000J0D01*
G01*
X103451500Y-138099500D01*
G75*
G02*
X103201500Y-137849500I0J250000D01*
G01*
X103201500Y-136924500D01*
G75*
G02*
X103451500Y-136674500I250000J0D01*
G01*
G37*
G36*
G01*
X103451500Y-139649500D02*
X104701500Y-139649500D01*
G75*
G02*
X104951500Y-139899500I0J-250000D01*
G01*
X104951500Y-140824500D01*
G75*
G02*
X104701500Y-141074500I-250000J0D01*
G01*
X103451500Y-141074500D01*
G75*
G02*
X103201500Y-140824500I0J250000D01*
G01*
X103201500Y-139899500D01*
G75*
G02*
X103451500Y-139649500I250000J0D01*
G01*
G37*
%TD*%
%TO.C,L1*%
G36*
G01*
X104574500Y-131495500D02*
X103324500Y-131495500D01*
G75*
G02*
X103074500Y-131245500I0J250000D01*
G01*
X103074500Y-130320500D01*
G75*
G02*
X103324500Y-130070500I250000J0D01*
G01*
X104574500Y-130070500D01*
G75*
G02*
X104824500Y-130320500I0J-250000D01*
G01*
X104824500Y-131245500D01*
G75*
G02*
X104574500Y-131495500I-250000J0D01*
G01*
G37*
G36*
G01*
X104574500Y-134470500D02*
X103324500Y-134470500D01*
G75*
G02*
X103074500Y-134220500I0J250000D01*
G01*
X103074500Y-133295500D01*
G75*
G02*
X103324500Y-133045500I250000J0D01*
G01*
X104574500Y-133045500D01*
G75*
G02*
X104824500Y-133295500I0J-250000D01*
G01*
X104824500Y-134220500D01*
G75*
G02*
X104574500Y-134470500I-250000J0D01*
G01*
G37*
%TD*%
%TO.C,L2*%
G36*
G01*
X128343500Y-121425000D02*
X129593500Y-121425000D01*
G75*
G02*
X129843500Y-121675000I0J-250000D01*
G01*
X129843500Y-122600000D01*
G75*
G02*
X129593500Y-122850000I-250000J0D01*
G01*
X128343500Y-122850000D01*
G75*
G02*
X128093500Y-122600000I0J250000D01*
G01*
X128093500Y-121675000D01*
G75*
G02*
X128343500Y-121425000I250000J0D01*
G01*
G37*
G36*
G01*
X128343500Y-118450000D02*
X129593500Y-118450000D01*
G75*
G02*
X129843500Y-118700000I0J-250000D01*
G01*
X129843500Y-119625000D01*
G75*
G02*
X129593500Y-119875000I-250000J0D01*
G01*
X128343500Y-119875000D01*
G75*
G02*
X128093500Y-119625000I0J250000D01*
G01*
X128093500Y-118700000D01*
G75*
G02*
X128343500Y-118450000I250000J0D01*
G01*
G37*
%TD*%
%TO.C,L3*%
G36*
G01*
X109591000Y-127803000D02*
X108341000Y-127803000D01*
G75*
G02*
X108091000Y-127553000I0J250000D01*
G01*
X108091000Y-126628000D01*
G75*
G02*
X108341000Y-126378000I250000J0D01*
G01*
X109591000Y-126378000D01*
G75*
G02*
X109841000Y-126628000I0J-250000D01*
G01*
X109841000Y-127553000D01*
G75*
G02*
X109591000Y-127803000I-250000J0D01*
G01*
G37*
G36*
G01*
X109591000Y-124828000D02*
X108341000Y-124828000D01*
G75*
G02*
X108091000Y-124578000I0J250000D01*
G01*
X108091000Y-123653000D01*
G75*
G02*
X108341000Y-123403000I250000J0D01*
G01*
X109591000Y-123403000D01*
G75*
G02*
X109841000Y-123653000I0J-250000D01*
G01*
X109841000Y-124578000D01*
G75*
G02*
X109591000Y-124828000I-250000J0D01*
G01*
G37*
%TD*%
%TO.C,L4*%
G36*
G01*
X154600000Y-146695000D02*
X154600000Y-147945000D01*
G75*
G02*
X154350000Y-148195000I-250000J0D01*
G01*
X153425000Y-148195000D01*
G75*
G02*
X153175000Y-147945000I0J250000D01*
G01*
X153175000Y-146695000D01*
G75*
G02*
X153425000Y-146445000I250000J0D01*
G01*
X154350000Y-146445000D01*
G75*
G02*
X154600000Y-146695000I0J-250000D01*
G01*
G37*
G36*
G01*
X151625000Y-146695000D02*
X151625000Y-147945000D01*
G75*
G02*
X151375000Y-148195000I-250000J0D01*
G01*
X150450000Y-148195000D01*
G75*
G02*
X150200000Y-147945000I0J250000D01*
G01*
X150200000Y-146695000D01*
G75*
G02*
X150450000Y-146445000I250000J0D01*
G01*
X151375000Y-146445000D01*
G75*
G02*
X151625000Y-146695000I0J-250000D01*
G01*
G37*
%TD*%
%TO.C,L5*%
G36*
G01*
X132407500Y-118486500D02*
X133657500Y-118486500D01*
G75*
G02*
X133907500Y-118736500I0J-250000D01*
G01*
X133907500Y-119661500D01*
G75*
G02*
X133657500Y-119911500I-250000J0D01*
G01*
X132407500Y-119911500D01*
G75*
G02*
X132157500Y-119661500I0J250000D01*
G01*
X132157500Y-118736500D01*
G75*
G02*
X132407500Y-118486500I250000J0D01*
G01*
G37*
G36*
G01*
X132407500Y-121461500D02*
X133657500Y-121461500D01*
G75*
G02*
X133907500Y-121711500I0J-250000D01*
G01*
X133907500Y-122636500D01*
G75*
G02*
X133657500Y-122886500I-250000J0D01*
G01*
X132407500Y-122886500D01*
G75*
G02*
X132157500Y-122636500I0J250000D01*
G01*
X132157500Y-121711500D01*
G75*
G02*
X132407500Y-121461500I250000J0D01*
G01*
G37*
%TD*%
%TO.C,R1*%
G36*
G01*
X117764499Y-103251500D02*
X120614501Y-103251500D01*
G75*
G02*
X120864500Y-103501499I0J-249999D01*
G01*
X120864500Y-104401501D01*
G75*
G02*
X120614501Y-104651500I-249999J0D01*
G01*
X117764499Y-104651500D01*
G75*
G02*
X117514500Y-104401501I0J249999D01*
G01*
X117514500Y-103501499D01*
G75*
G02*
X117764499Y-103251500I249999J0D01*
G01*
G37*
G36*
G01*
X117764499Y-97151500D02*
X120614501Y-97151500D01*
G75*
G02*
X120864500Y-97401499I0J-249999D01*
G01*
X120864500Y-98301501D01*
G75*
G02*
X120614501Y-98551500I-249999J0D01*
G01*
X117764499Y-98551500D01*
G75*
G02*
X117514500Y-98301501I0J249999D01*
G01*
X117514500Y-97401499D01*
G75*
G02*
X117764499Y-97151500I249999J0D01*
G01*
G37*
%TD*%
%TO.C,R2*%
G36*
G01*
X108765500Y-101551500D02*
X107515500Y-101551500D01*
G75*
G02*
X107265500Y-101301500I0J250000D01*
G01*
X107265500Y-100501500D01*
G75*
G02*
X107515500Y-100251500I250000J0D01*
G01*
X108765500Y-100251500D01*
G75*
G02*
X109015500Y-100501500I0J-250000D01*
G01*
X109015500Y-101301500D01*
G75*
G02*
X108765500Y-101551500I-250000J0D01*
G01*
G37*
G36*
G01*
X108765500Y-98451500D02*
X107515500Y-98451500D01*
G75*
G02*
X107265500Y-98201500I0J250000D01*
G01*
X107265500Y-97401500D01*
G75*
G02*
X107515500Y-97151500I250000J0D01*
G01*
X108765500Y-97151500D01*
G75*
G02*
X109015500Y-97401500I0J-250000D01*
G01*
X109015500Y-98201500D01*
G75*
G02*
X108765500Y-98451500I-250000J0D01*
G01*
G37*
%TD*%
%TO.C,R3*%
G36*
G01*
X111858999Y-97151500D02*
X114709001Y-97151500D01*
G75*
G02*
X114959000Y-97401499I0J-249999D01*
G01*
X114959000Y-98301501D01*
G75*
G02*
X114709001Y-98551500I-249999J0D01*
G01*
X111858999Y-98551500D01*
G75*
G02*
X111609000Y-98301501I0J249999D01*
G01*
X111609000Y-97401499D01*
G75*
G02*
X111858999Y-97151500I249999J0D01*
G01*
G37*
G36*
G01*
X111858999Y-103251500D02*
X114709001Y-103251500D01*
G75*
G02*
X114959000Y-103501499I0J-249999D01*
G01*
X114959000Y-104401501D01*
G75*
G02*
X114709001Y-104651500I-249999J0D01*
G01*
X111858999Y-104651500D01*
G75*
G02*
X111609000Y-104401501I0J249999D01*
G01*
X111609000Y-103501499D01*
G75*
G02*
X111858999Y-103251500I249999J0D01*
G01*
G37*
%TD*%
%TO.C,R4*%
G36*
G01*
X149450999Y-97151500D02*
X152301001Y-97151500D01*
G75*
G02*
X152551000Y-97401499I0J-249999D01*
G01*
X152551000Y-98301501D01*
G75*
G02*
X152301001Y-98551500I-249999J0D01*
G01*
X149450999Y-98551500D01*
G75*
G02*
X149201000Y-98301501I0J249999D01*
G01*
X149201000Y-97401499D01*
G75*
G02*
X149450999Y-97151500I249999J0D01*
G01*
G37*
G36*
G01*
X149450999Y-103251500D02*
X152301001Y-103251500D01*
G75*
G02*
X152551000Y-103501499I0J-249999D01*
G01*
X152551000Y-104401501D01*
G75*
G02*
X152301001Y-104651500I-249999J0D01*
G01*
X149450999Y-104651500D01*
G75*
G02*
X149201000Y-104401501I0J249999D01*
G01*
X149201000Y-103501499D01*
G75*
G02*
X149450999Y-103251500I249999J0D01*
G01*
G37*
%TD*%
%TO.C,R5*%
G36*
G01*
X146141501Y-98551500D02*
X143291499Y-98551500D01*
G75*
G02*
X143041500Y-98301501I0J249999D01*
G01*
X143041500Y-97401499D01*
G75*
G02*
X143291499Y-97151500I249999J0D01*
G01*
X146141501Y-97151500D01*
G75*
G02*
X146391500Y-97401499I0J-249999D01*
G01*
X146391500Y-98301501D01*
G75*
G02*
X146141501Y-98551500I-249999J0D01*
G01*
G37*
G36*
G01*
X146141501Y-104651500D02*
X143291499Y-104651500D01*
G75*
G02*
X143041500Y-104401501I0J249999D01*
G01*
X143041500Y-103501499D01*
G75*
G02*
X143291499Y-103251500I249999J0D01*
G01*
X146141501Y-103251500D01*
G75*
G02*
X146391500Y-103501499I0J-249999D01*
G01*
X146391500Y-104401501D01*
G75*
G02*
X146141501Y-104651500I-249999J0D01*
G01*
G37*
%TD*%
%TO.C,R6*%
G36*
G01*
X154950000Y-100277500D02*
X156200000Y-100277500D01*
G75*
G02*
X156450000Y-100527500I0J-250000D01*
G01*
X156450000Y-101327500D01*
G75*
G02*
X156200000Y-101577500I-250000J0D01*
G01*
X154950000Y-101577500D01*
G75*
G02*
X154700000Y-101327500I0J250000D01*
G01*
X154700000Y-100527500D01*
G75*
G02*
X154950000Y-100277500I250000J0D01*
G01*
G37*
G36*
G01*
X154950000Y-97177500D02*
X156200000Y-97177500D01*
G75*
G02*
X156450000Y-97427500I0J-250000D01*
G01*
X156450000Y-98227500D01*
G75*
G02*
X156200000Y-98477500I-250000J0D01*
G01*
X154950000Y-98477500D01*
G75*
G02*
X154700000Y-98227500I0J250000D01*
G01*
X154700000Y-97427500D01*
G75*
G02*
X154950000Y-97177500I250000J0D01*
G01*
G37*
%TD*%
D10*
%TO.C,T1*%
X115379500Y-60896500D03*
X148399500Y-60896500D03*
X153479500Y-69786500D03*
D11*
X117919500Y-72326500D03*
%TD*%
%TO.C,T2*%
X146050000Y-81026000D03*
D10*
X110490000Y-83566000D03*
X115570000Y-92456000D03*
X148590000Y-92456000D03*
%TD*%
%TO.C,U1*%
G36*
G01*
X111485000Y-112100500D02*
X111485000Y-111800500D01*
G75*
G02*
X111635000Y-111650500I150000J0D01*
G01*
X113085000Y-111650500D01*
G75*
G02*
X113235000Y-111800500I0J-150000D01*
G01*
X113235000Y-112100500D01*
G75*
G02*
X113085000Y-112250500I-150000J0D01*
G01*
X111635000Y-112250500D01*
G75*
G02*
X111485000Y-112100500I0J150000D01*
G01*
G37*
G36*
G01*
X111485000Y-113370500D02*
X111485000Y-113070500D01*
G75*
G02*
X111635000Y-112920500I150000J0D01*
G01*
X113085000Y-112920500D01*
G75*
G02*
X113235000Y-113070500I0J-150000D01*
G01*
X113235000Y-113370500D01*
G75*
G02*
X113085000Y-113520500I-150000J0D01*
G01*
X111635000Y-113520500D01*
G75*
G02*
X111485000Y-113370500I0J150000D01*
G01*
G37*
G36*
G01*
X111485000Y-114640500D02*
X111485000Y-114340500D01*
G75*
G02*
X111635000Y-114190500I150000J0D01*
G01*
X113085000Y-114190500D01*
G75*
G02*
X113235000Y-114340500I0J-150000D01*
G01*
X113235000Y-114640500D01*
G75*
G02*
X113085000Y-114790500I-150000J0D01*
G01*
X111635000Y-114790500D01*
G75*
G02*
X111485000Y-114640500I0J150000D01*
G01*
G37*
G36*
G01*
X111485000Y-115910500D02*
X111485000Y-115610500D01*
G75*
G02*
X111635000Y-115460500I150000J0D01*
G01*
X113085000Y-115460500D01*
G75*
G02*
X113235000Y-115610500I0J-150000D01*
G01*
X113235000Y-115910500D01*
G75*
G02*
X113085000Y-116060500I-150000J0D01*
G01*
X111635000Y-116060500D01*
G75*
G02*
X111485000Y-115910500I0J150000D01*
G01*
G37*
G36*
G01*
X116635000Y-115910500D02*
X116635000Y-115610500D01*
G75*
G02*
X116785000Y-115460500I150000J0D01*
G01*
X118235000Y-115460500D01*
G75*
G02*
X118385000Y-115610500I0J-150000D01*
G01*
X118385000Y-115910500D01*
G75*
G02*
X118235000Y-116060500I-150000J0D01*
G01*
X116785000Y-116060500D01*
G75*
G02*
X116635000Y-115910500I0J150000D01*
G01*
G37*
G36*
G01*
X116635000Y-114640500D02*
X116635000Y-114340500D01*
G75*
G02*
X116785000Y-114190500I150000J0D01*
G01*
X118235000Y-114190500D01*
G75*
G02*
X118385000Y-114340500I0J-150000D01*
G01*
X118385000Y-114640500D01*
G75*
G02*
X118235000Y-114790500I-150000J0D01*
G01*
X116785000Y-114790500D01*
G75*
G02*
X116635000Y-114640500I0J150000D01*
G01*
G37*
G36*
G01*
X116635000Y-113370500D02*
X116635000Y-113070500D01*
G75*
G02*
X116785000Y-112920500I150000J0D01*
G01*
X118235000Y-112920500D01*
G75*
G02*
X118385000Y-113070500I0J-150000D01*
G01*
X118385000Y-113370500D01*
G75*
G02*
X118235000Y-113520500I-150000J0D01*
G01*
X116785000Y-113520500D01*
G75*
G02*
X116635000Y-113370500I0J150000D01*
G01*
G37*
G36*
G01*
X116635000Y-112100500D02*
X116635000Y-111800500D01*
G75*
G02*
X116785000Y-111650500I150000J0D01*
G01*
X118235000Y-111650500D01*
G75*
G02*
X118385000Y-111800500I0J-150000D01*
G01*
X118385000Y-112100500D01*
G75*
G02*
X118235000Y-112250500I-150000J0D01*
G01*
X116785000Y-112250500D01*
G75*
G02*
X116635000Y-112100500I0J150000D01*
G01*
G37*
%TD*%
D12*
%TO.C,U2*%
X105321500Y-123253500D03*
D13*
X99021500Y-123253500D03*
X99021500Y-125553500D03*
X99021500Y-120953500D03*
%TD*%
%TO.C,U3*%
G36*
G01*
X145146500Y-111656000D02*
X145146500Y-111356000D01*
G75*
G02*
X145296500Y-111206000I150000J0D01*
G01*
X146746500Y-111206000D01*
G75*
G02*
X146896500Y-111356000I0J-150000D01*
G01*
X146896500Y-111656000D01*
G75*
G02*
X146746500Y-111806000I-150000J0D01*
G01*
X145296500Y-111806000D01*
G75*
G02*
X145146500Y-111656000I0J150000D01*
G01*
G37*
G36*
G01*
X145146500Y-112926000D02*
X145146500Y-112626000D01*
G75*
G02*
X145296500Y-112476000I150000J0D01*
G01*
X146746500Y-112476000D01*
G75*
G02*
X146896500Y-112626000I0J-150000D01*
G01*
X146896500Y-112926000D01*
G75*
G02*
X146746500Y-113076000I-150000J0D01*
G01*
X145296500Y-113076000D01*
G75*
G02*
X145146500Y-112926000I0J150000D01*
G01*
G37*
G36*
G01*
X145146500Y-114196000D02*
X145146500Y-113896000D01*
G75*
G02*
X145296500Y-113746000I150000J0D01*
G01*
X146746500Y-113746000D01*
G75*
G02*
X146896500Y-113896000I0J-150000D01*
G01*
X146896500Y-114196000D01*
G75*
G02*
X146746500Y-114346000I-150000J0D01*
G01*
X145296500Y-114346000D01*
G75*
G02*
X145146500Y-114196000I0J150000D01*
G01*
G37*
G36*
G01*
X145146500Y-115466000D02*
X145146500Y-115166000D01*
G75*
G02*
X145296500Y-115016000I150000J0D01*
G01*
X146746500Y-115016000D01*
G75*
G02*
X146896500Y-115166000I0J-150000D01*
G01*
X146896500Y-115466000D01*
G75*
G02*
X146746500Y-115616000I-150000J0D01*
G01*
X145296500Y-115616000D01*
G75*
G02*
X145146500Y-115466000I0J150000D01*
G01*
G37*
G36*
G01*
X139996500Y-115466000D02*
X139996500Y-115166000D01*
G75*
G02*
X140146500Y-115016000I150000J0D01*
G01*
X141596500Y-115016000D01*
G75*
G02*
X141746500Y-115166000I0J-150000D01*
G01*
X141746500Y-115466000D01*
G75*
G02*
X141596500Y-115616000I-150000J0D01*
G01*
X140146500Y-115616000D01*
G75*
G02*
X139996500Y-115466000I0J150000D01*
G01*
G37*
G36*
G01*
X139996500Y-114196000D02*
X139996500Y-113896000D01*
G75*
G02*
X140146500Y-113746000I150000J0D01*
G01*
X141596500Y-113746000D01*
G75*
G02*
X141746500Y-113896000I0J-150000D01*
G01*
X141746500Y-114196000D01*
G75*
G02*
X141596500Y-114346000I-150000J0D01*
G01*
X140146500Y-114346000D01*
G75*
G02*
X139996500Y-114196000I0J150000D01*
G01*
G37*
G36*
G01*
X139996500Y-112926000D02*
X139996500Y-112626000D01*
G75*
G02*
X140146500Y-112476000I150000J0D01*
G01*
X141596500Y-112476000D01*
G75*
G02*
X141746500Y-112626000I0J-150000D01*
G01*
X141746500Y-112926000D01*
G75*
G02*
X141596500Y-113076000I-150000J0D01*
G01*
X140146500Y-113076000D01*
G75*
G02*
X139996500Y-112926000I0J150000D01*
G01*
G37*
G36*
G01*
X139996500Y-111656000D02*
X139996500Y-111356000D01*
G75*
G02*
X140146500Y-111206000I150000J0D01*
G01*
X141596500Y-111206000D01*
G75*
G02*
X141746500Y-111356000I0J-150000D01*
G01*
X141746500Y-111656000D01*
G75*
G02*
X141596500Y-111806000I-150000J0D01*
G01*
X140146500Y-111806000D01*
G75*
G02*
X139996500Y-111656000I0J150000D01*
G01*
G37*
%TD*%
D14*
%TO.C,J2*%
X98171000Y-68580000D03*
X98171000Y-60960000D03*
%TD*%
%TO.C,J3*%
X159004000Y-61023500D03*
X159004000Y-53403500D03*
%TD*%
M02*
