%TF.GenerationSoftware,KiCad,Pcbnew,5.1.10-88a1d61d58~90~ubuntu20.04.1*%
%TF.CreationDate,2022-02-26T14:12:45+09:30*%
%TF.ProjectId,SWRBridge,53575242-7269-4646-9765-2e6b69636164,rev?*%
%TF.SameCoordinates,Original*%
%TF.FileFunction,Soldermask,Bot*%
%TF.FilePolarity,Negative*%
%FSLAX46Y46*%
G04 Gerber Fmt 4.6, Leading zero omitted, Abs format (unit mm)*
G04 Created by KiCad (PCBNEW 5.1.10-88a1d61d58~90~ubuntu20.04.1) date 2022-02-26 14:12:45*
%MOMM*%
%LPD*%
G01*
G04 APERTURE LIST*
%ADD10R,1.700000X1.700000*%
%ADD11O,1.700000X1.700000*%
%ADD12R,12.000000X6.000000*%
%ADD13C,1.524000*%
G04 APERTURE END LIST*
D10*
%TO.C,J1*%
X98171000Y-141033500D03*
D11*
X98171000Y-138493500D03*
%TD*%
D10*
%TO.C,J4*%
X157543500Y-144589500D03*
D11*
X157543500Y-142049500D03*
X157543500Y-139509500D03*
X157543500Y-136969500D03*
X157543500Y-134429500D03*
X157543500Y-131889500D03*
X157543500Y-129349500D03*
X157543500Y-126809500D03*
%TD*%
D10*
%TO.C,J5*%
X124206000Y-147637500D03*
D11*
X126746000Y-147637500D03*
X129286000Y-147637500D03*
X131826000Y-147637500D03*
X134366000Y-147637500D03*
X136906000Y-147637500D03*
%TD*%
D10*
%TO.C,J6*%
X110617000Y-147637500D03*
D11*
X113157000Y-147637500D03*
X115697000Y-147637500D03*
X118237000Y-147637500D03*
%TD*%
D12*
%TO.C,T1*%
X148399500Y-60896500D03*
%TD*%
%TO.C,T2*%
X115570000Y-92456000D03*
%TD*%
D13*
%TO.C,U4*%
X119316500Y-142557500D03*
X121856500Y-142557500D03*
X124396500Y-142557500D03*
X126936500Y-142557500D03*
X129476500Y-142557500D03*
X132016500Y-142557500D03*
X134556500Y-142557500D03*
X137096500Y-142557500D03*
X139636500Y-142557500D03*
X142176500Y-142557500D03*
X142176500Y-127317500D03*
X139636500Y-127317500D03*
X137096500Y-127317500D03*
X134556500Y-127317500D03*
X132016500Y-127317500D03*
X129476500Y-127317500D03*
X126936500Y-127317500D03*
X124396500Y-127317500D03*
X121856500Y-127317500D03*
X119316500Y-127317500D03*
X116776500Y-128587500D03*
X116776500Y-131127500D03*
X116776500Y-133667500D03*
X116776500Y-136207500D03*
X116776500Y-138747500D03*
X116776500Y-141287500D03*
X144716500Y-142557500D03*
X147256500Y-142557500D03*
X147256500Y-127317500D03*
X144716500Y-127317500D03*
%TD*%
M02*
